<?xml version="1.0" standalone="no"?>
<!DOCTYPE svg PUBLIC "-//W3C//DTD SVG 20010904//EN"
 "http://www.w3.org/TR/2001/REC-SVG-20010904/DTD/svg10.dtd">
<svg version="1.0" xmlns="http://www.w3.org/2000/svg"
 width="888.000000pt" height="888.000000pt" viewBox="0 0 888.000000 888.000000"
 preserveAspectRatio="xMidYMid meet">
<metadata>
Created by potrace 1.14, written by Peter Selinger 2001-2017
</metadata>
<g transform="translate(0.000000,888.000000) scale(0.100000,-0.100000)"
fill="#000000" stroke="none">
<path d="M4185 8874 c-793 -53 -1516 -291 -2165 -712 -505 -328 -955 -776
-1293 -1289 -386 -586 -622 -1246 -704 -1975 -24 -213 -24 -703 0 -916 129
-1142 645 -2136 1497 -2885 697 -613 1552 -980 2510 -1079 163 -17 657 -17
820 0 1088 113 2027 564 2775 1333 700 719 1117 1610 1232 2631 24 213 24 703
0 916 -60 532 -192 997 -416 1467 -343 718 -909 1361 -1581 1797 -590 383
-1246 616 -1951 693 -138 15 -599 27 -724 19z m-2017 -3170 c76 -31 132 -111
132 -189 0 -86 -17 -106 -488 -578 l-447 -447 452 -453 c310 -310 457 -464
468 -489 22 -54 19 -107 -11 -167 -34 -67 -86 -103 -158 -109 -105 -9 -85 -25
-669 557 -356 355 -544 550 -557 577 -24 49 -26 121 -5 172 24 56 1053 1084
1119 1117 57 29 111 32 164 9z m4686 4 c35 -10 117 -88 579 -547 357 -356 544
-550 557 -577 26 -53 26 -133 1 -182 -29 -56 -1077 -1098 -1123 -1117 -51 -21
-121 -19 -167 4 -69 36 -121 115 -121 186 0 78 5 83 476 555 250 250 454 460
454 465 0 5 -204 215 -454 465 -471 472 -476 477 -476 555 0 73 55 155 125
186 47 22 91 24 149 7z m-749 -173 c89 -24 211 -86 288 -145 37 -29 67 -56 67
-60 0 -4 -40 -45 -90 -90 l-89 -81 -46 31 c-113 78 -231 113 -375 112 -178 -1
-314 -56 -435 -177 -161 -159 -261 -394 -310 -721 -21 -145 -22 -394 0 -499
53 -260 223 -405 475 -405 146 1 274 43 430 144 39 26 72 46 74 46 5 0 136
-205 136 -212 0 -11 -146 -106 -215 -140 -149 -75 -273 -102 -455 -101 -161 1
-253 22 -377 84 -187 94 -315 263 -380 505 -25 94 -27 111 -27 329 0 213 2
239 27 360 69 324 182 560 358 748 93 100 173 160 287 215 140 66 231 83 432
78 113 -3 184 -9 225 -21z m-2855 -1135 l0 -1130 -270 0 -270 0 0 1130 0 1130
270 0 270 0 0 -1130z m1290 1125 c0 -3 -160 -231 -355 -505 -195 -275 -355
-502 -355 -504 0 -2 172 -278 381 -613 210 -334 384 -614 386 -620 4 -10 -61
-13 -305 -13 l-310 0 -357 597 c-196 329 -357 602 -358 606 -1 5 158 244 353
532 l355 524 283 1 c155 0 282 -2 282 -5z"/>
</g>
</svg>
